<svg width="270" height="87" viewBox="0 0 270 87" fill="none" xmlns="http://www.w3.org/2000/svg">
<path d="M45.8704 51.7699L34.4224 66.061C33.5719 67.1221 34.3279 68.6935 35.686 68.6935H58.582C59.9401 68.6935 60.6961 67.1221 59.8456 66.061L48.3976 51.7699C47.7496 50.9599 46.5184 50.9599 45.8704 51.7699Z" fill="#82337E"/>
<path d="M29.0225 23.0498L17.7338 42.6005C17.5826 42.8597 17.5826 43.181 17.7338 43.4402L29.0225 62.9909C29.3465 63.5498 30.1538 63.5498 30.4778 62.9909L41.7665 43.4402C41.9177 43.181 41.9177 42.8597 41.7665 42.6005L30.4778 23.0498C30.1538 22.4909 29.3465 22.4909 29.0225 23.0498Z" fill="#023047"/>
<path d="M63.7906 23.0498L52.5019 42.6005C52.3507 42.8597 52.3507 43.181 52.5019 43.4402L63.7906 62.9909C64.1146 63.5498 64.9219 63.5498 65.2459 62.9909L76.5346 43.4402C76.6858 43.181 76.6858 42.8597 76.5346 42.6005L65.2459 23.0498C64.9219 22.4909 64.1146 22.4909 63.7906 23.0498Z" fill="#023047"/>
<path d="M48.3976 34.2737L59.8456 19.9826C60.6961 18.9215 59.9401 17.3501 58.582 17.3501H35.686C34.3279 17.3501 33.5719 18.9215 34.4224 19.9826L45.8704 34.2737C46.5184 35.0837 47.7496 35.0837 48.3976 34.2737Z" fill="#82337E"/>
<path d="M94.2848 19.84C94.2848 18.6736 95.2298 17.7286 96.3962 17.7286H115.904C120.756 17.7286 124.455 18.9895 127.006 21.514C129.552 24.0358 130.827 27.6997 130.827 32.5057C130.827 37.3603 129.552 41.0485 127.006 43.5703C124.46 46.0921 120.758 47.3557 115.904 47.3557H101.637C100.47 47.3557 99.5255 48.3007 99.5255 49.4671V66.5743C99.5255 67.7407 98.5805 68.6857 97.4141 68.6857H96.3962C95.2298 68.6857 94.2848 67.7407 94.2848 66.5743V19.84ZM115.464 43.1329C118.666 43.1329 121.152 42.2014 122.926 40.3303C124.698 38.4619 125.583 35.8537 125.583 32.5057C125.583 29.2063 124.698 26.6224 122.926 24.754C121.155 22.8856 118.668 21.9514 115.464 21.9514H101.634C100.468 21.9514 99.5228 22.8964 99.5228 24.0628V41.0215C99.5228 42.1879 100.468 43.1329 101.634 43.1329H115.464Z" fill="#023047"/>
<path d="M97.4137 68.8202H96.3958C95.1565 68.8202 94.1494 67.8131 94.1494 66.5738V19.8395C94.1494 18.6002 95.1565 17.5931 96.3958 17.5931H115.903C120.769 17.5931 124.538 18.881 127.1 21.419C129.663 23.957 130.961 27.6857 130.961 32.5052C130.961 37.3733 129.663 41.129 127.1 43.667C124.538 46.205 120.771 47.4929 115.903 47.4929H101.637C100.546 47.4929 99.6601 48.3785 99.6601 49.4693V66.5765C99.6601 67.8131 98.6503 68.8202 97.4137 68.8202ZM96.3931 17.8658C95.3023 17.8658 94.4167 18.7514 94.4167 19.8422V66.5765C94.4167 67.6673 95.3023 68.5529 96.3931 68.5529H97.411C98.5018 68.5529 99.3874 67.6673 99.3874 66.5765V49.4693C99.3874 48.23 100.395 47.2229 101.634 47.2229H115.901C120.693 47.2229 124.398 45.962 126.906 43.4753C129.414 40.9913 130.686 37.3004 130.686 32.5079C130.686 27.7613 129.414 24.0974 126.906 21.6134C124.395 19.1267 120.693 17.8658 115.901 17.8658H96.3931V17.8658ZM115.598 43.2701H101.634C100.395 43.2701 99.3874 42.263 99.3874 41.0237V24.065C99.3874 22.8257 100.395 21.8186 101.634 21.8186H115.463C118.692 21.8186 121.236 22.7744 123.023 24.6617C124.811 26.549 125.718 29.1869 125.718 32.5052C125.718 35.8721 124.811 38.5343 123.023 40.4216C121.257 42.2819 118.76 43.2377 115.598 43.2647V43.2701ZM101.634 22.0886C100.543 22.0886 99.6574 22.9742 99.6574 24.065V41.0237C99.6574 42.1145 100.543 43.0001 101.634 43.0001L115.463 42.9974C118.611 42.9974 121.09 42.0686 122.829 40.238C124.568 38.402 125.448 35.8019 125.448 32.5079C125.448 29.2625 124.565 26.684 122.829 24.8507C121.095 23.0201 118.617 22.0913 115.463 22.0913H101.634V22.0886Z" fill="#023047"/>
<path d="M135.285 17.7341H136.303C137.469 17.7341 138.414 18.6791 138.414 19.8455V66.5771C138.414 67.7435 137.469 68.6885 136.303 68.6885H135.285C134.118 68.6885 133.173 67.7435 133.173 66.5771V19.8455C133.173 18.6791 134.118 17.7341 135.285 17.7341Z" fill="#023047"/>
<path d="M136.302 68.8229H135.284C134.045 68.8229 133.038 67.8158 133.038 66.5765V19.8449C133.038 18.6056 134.045 17.5985 135.284 17.5985H136.302C137.541 17.5985 138.548 18.6056 138.548 19.8449V66.5765C138.548 67.8131 137.541 68.8229 136.302 68.8229ZM135.284 17.8685C134.193 17.8685 133.308 18.7541 133.308 19.8449V66.5765C133.308 67.6673 134.193 68.5529 135.284 68.5529H136.302C137.393 68.5529 138.278 67.6673 138.278 66.5765V19.8449C138.278 18.7541 137.393 17.8685 136.302 17.8685H135.284Z" fill="#023047"/>
<path d="M165.759 44.5316L179.845 65.3945C180.793 66.7958 179.786 68.6858 178.095 68.6858H177.148C176.446 68.6858 175.792 68.3348 175.398 67.757L163.291 49.8074C162.454 48.5681 160.629 48.5681 159.789 49.8074L147.683 67.757C147.291 68.3402 146.632 68.6858 145.933 68.6858H145.055C143.365 68.6858 142.361 66.7958 143.306 65.3945L157.764 43.9484C158.242 43.2356 158.245 42.3041 157.767 41.5913L143.954 21.0173C143.012 19.616 144.019 17.7314 145.706 17.7314H146.592C147.294 17.7314 147.95 18.0824 148.344 18.6629L160.235 36.3155C161.072 37.5575 162.902 37.5575 163.737 36.3155L175.628 18.6629C176.019 18.0797 176.678 17.7314 177.38 17.7314H178.195C179.883 17.7314 180.89 19.616 179.948 21.0173L165.762 42.1745C165.276 42.8873 165.281 43.8215 165.759 44.5316Z" fill="#023047"/>
<path d="M178.095 68.8229H177.147C176.402 68.8229 175.706 68.453 175.287 67.8347L163.18 49.8851C162.808 49.3316 162.208 49.0157 161.541 49.0157C160.875 49.0157 160.278 49.3316 159.903 49.8851L147.796 67.8347C147.377 68.453 146.683 68.8229 145.935 68.8229H145.058C144.213 68.8229 143.473 68.3774 143.076 67.6322C142.679 66.8843 142.725 66.0203 143.198 65.321L157.656 43.8749C158.107 43.2026 158.11 42.3386 157.659 41.669L143.846 21.095C143.376 20.3957 143.333 19.5317 143.727 18.7892C144.124 18.044 144.864 17.5985 145.709 17.5985H146.594C147.342 17.5985 148.039 17.9684 148.457 18.5921L160.348 36.2447C160.715 36.7901 161.328 37.1168 161.987 37.1168C161.987 37.1168 161.987 37.1168 161.99 37.1168C162.648 37.1168 163.259 36.7901 163.626 36.2447L175.517 18.5921C175.935 17.9711 176.632 17.5985 177.38 17.5985H178.195C179.04 17.5985 179.78 18.044 180.177 18.7892C180.574 19.5344 180.531 20.3957 180.058 21.095L165.872 42.2522C165.419 42.9191 165.416 43.7858 165.87 44.4581L179.955 65.321C180.428 66.0203 180.474 66.8843 180.08 67.6322C179.683 68.3747 178.943 68.8229 178.095 68.8229ZM161.541 48.743C162.289 48.743 162.986 49.1129 163.404 49.7312L175.511 67.6808C175.881 68.2262 176.491 68.5502 177.147 68.5502H178.095C178.84 68.5502 179.491 68.1587 179.839 67.4999C180.188 66.8438 180.147 66.0824 179.731 65.4668L165.645 44.6039C165.13 43.8398 165.132 42.8543 165.648 42.0956L179.834 20.9411C180.247 20.3255 180.288 19.5668 179.937 18.9107C179.588 18.2546 178.935 17.8631 178.192 17.8631H177.377C176.718 17.8631 176.105 18.1898 175.738 18.7352L163.847 36.3878C163.431 37.0088 162.735 37.3787 161.987 37.3787C161.987 37.3787 161.987 37.3787 161.984 37.3787C161.236 37.3787 160.54 37.0088 160.121 36.3878L148.23 18.7352C147.863 18.1871 147.248 17.8631 146.592 17.8631H145.706C144.963 17.8631 144.313 18.2546 143.962 18.9107C143.613 19.5668 143.651 20.3228 144.064 20.9411L157.878 41.5151C158.388 42.2765 158.388 43.2593 157.875 44.0234L143.416 65.4695C143.001 66.0878 142.96 66.8465 143.311 67.5053C143.659 68.1614 144.313 68.5529 145.055 68.5529H145.933C146.592 68.5529 147.202 68.2289 147.569 67.6835L159.676 49.7339C160.097 49.1129 160.794 48.743 161.541 48.743Z" fill="#023047"/>
<path d="M186.181 64.9373C183.438 62.4398 182.069 58.6166 182.069 53.4731V32.945C182.069 27.8015 183.441 23.9783 186.181 21.4808C188.922 18.9833 193.134 17.7305 198.812 17.7305H214.242C215.409 17.7305 216.354 18.6755 216.354 19.8419C216.354 21.0083 215.409 21.9533 214.242 21.9533H198.812C194.881 21.9533 191.981 22.8524 190.112 24.6479C188.244 26.4434 187.31 29.2109 187.31 32.945V38.9876C187.31 40.154 188.255 41.099 189.421 41.099H210.533C211.699 41.099 212.644 42.044 212.644 43.2104C212.644 44.3768 211.699 45.3218 210.533 45.3218H189.421C188.255 45.3218 187.31 46.2668 187.31 47.4332V53.4758C187.31 57.2126 188.241 59.9801 190.112 61.7729C191.981 63.5684 194.881 64.4675 198.812 64.4675H214.682C215.849 64.4675 216.794 65.4125 216.794 66.5789C216.794 67.7453 215.849 68.6903 214.682 68.6903H198.812C193.134 68.6876 188.922 67.4375 186.181 64.9373Z" fill="#023047"/>
<path d="M214.68 68.8229H198.809C193.12 68.8229 188.841 67.5485 186.089 65.0375C183.333 62.5265 181.934 58.6358 181.934 53.4734V32.9453C181.934 27.7856 183.333 23.8949 186.089 21.3812C188.843 18.8702 193.125 17.5958 198.809 17.5958H214.239C215.479 17.5958 216.486 18.6029 216.486 19.8422C216.486 21.0815 215.479 22.0886 214.239 22.0886H198.809C194.934 22.0886 192.037 22.9823 190.204 24.7454C188.373 26.5058 187.445 29.2625 187.445 32.9453V38.9879C187.445 40.0787 188.33 40.9643 189.421 40.9643H210.532C211.772 40.9643 212.779 41.9714 212.779 43.2107C212.779 44.45 211.772 45.4571 210.532 45.4571H189.421C188.33 45.4571 187.445 46.3427 187.445 47.4335V53.4761C187.445 57.1616 188.373 59.9183 190.204 61.676C192.04 63.4391 194.934 64.3328 198.809 64.3328H214.68C215.919 64.3328 216.926 65.3399 216.926 66.5792C216.926 67.8185 215.919 68.8229 214.68 68.8229ZM198.812 17.8685C193.196 17.8685 188.978 19.1186 186.273 21.5837C183.573 24.0434 182.204 27.8666 182.204 32.948V53.4761C182.204 58.5602 183.573 62.3834 186.27 64.8404C188.97 67.3055 193.19 68.5556 198.809 68.5556H214.68C215.77 68.5556 216.656 67.67 216.656 66.5792C216.656 65.4884 215.77 64.6028 214.68 64.6028H198.809C194.862 64.6028 191.902 63.6848 190.018 61.8704C188.13 60.0614 187.175 57.2372 187.175 53.4761V47.4335C187.175 46.1942 188.182 45.1871 189.421 45.1871H210.532C211.623 45.1871 212.509 44.3015 212.509 43.2107C212.509 42.1199 211.623 41.2343 210.532 41.2343H189.421C188.182 41.2343 187.175 40.2272 187.175 38.9879V32.9453C187.175 29.1869 188.13 26.3627 190.018 24.551C191.905 22.7393 194.862 21.8186 198.809 21.8186H214.239C215.33 21.8186 216.216 20.933 216.216 19.8422C216.216 18.7514 215.33 17.8658 214.239 17.8658H198.812V17.8685Z" fill="#023047"/>
<path d="M223.678 64.9337C220.984 62.4362 219.636 58.613 219.636 53.4695V19.841C219.636 18.6746 220.581 17.7296 221.748 17.7296H222.766C223.932 17.7296 224.877 18.6746 224.877 19.841V53.4695C224.877 57.2063 225.79 59.9738 227.607 61.7666C229.426 63.5621 232.253 64.4612 236.087 64.4612H250.354C251.521 64.4612 252.466 65.4062 252.466 66.5726C252.466 67.739 251.521 68.684 250.354 68.684H236.09C230.509 68.684 226.373 67.4366 223.678 64.9337Z" fill="#023047"/>
<path d="M250.358 68.8176H236.088C230.497 68.8176 226.29 67.5432 223.585 65.0322C220.874 62.5185 219.5 58.6304 219.5 53.4707V19.8395C219.5 18.6002 220.507 17.5931 221.746 17.5931H222.764C224.003 17.5931 225.01 18.6002 225.01 19.8395V53.468C225.01 57.1508 225.915 59.9102 227.702 61.6679C229.487 63.431 232.308 64.322 236.088 64.322H250.355C251.594 64.322 252.602 65.3292 252.602 66.5685C252.602 67.8078 251.594 68.8176 250.358 68.8176ZM221.746 17.8658C220.655 17.8658 219.77 18.7514 219.77 19.8422V53.4707C219.77 58.5521 221.114 62.3754 223.768 64.8351C226.422 67.3002 230.567 68.5476 236.088 68.5476H250.355C251.446 68.5476 252.332 67.662 252.332 66.5712C252.332 65.4804 251.446 64.5948 250.355 64.5948H236.088C232.235 64.5948 229.352 63.674 227.513 61.8623C225.674 60.0506 224.743 57.2264 224.743 53.468V19.8395C224.743 18.7487 223.857 17.8631 222.767 17.8631H221.746V17.8658Z" fill="#023047"/>
</svg>
