<svg width="270" height="248" viewBox="0 0 270 248" fill="none" xmlns="http://www.w3.org/2000/svg">
<path d="M131.447 148.103L99.2819 188.255C96.8951 191.236 99.0173 195.653 102.835 195.653H167.165C170.983 195.653 173.105 191.236 170.718 188.255L138.553 148.103C136.731 145.83 133.269 145.83 131.447 148.103Z" fill="#82337E"/>
<path d="M84.1106 67.4109L52.3964 122.345C51.9752 123.077 51.9752 123.976 52.3964 124.705L84.1133 179.639C85.0232 181.213 87.2939 181.213 88.2011 179.639L119.918 124.705C120.339 123.973 120.339 123.074 119.918 122.345L88.2011 67.4109C87.2912 65.8368 85.0205 65.8368 84.1106 67.4109Z" fill="#023047"/>
<path d="M181.799 67.4109L150.085 122.345C149.664 123.077 149.664 123.976 150.085 124.705L181.802 179.639C182.712 181.213 184.982 181.213 185.89 179.639L217.607 124.705C218.028 123.973 218.028 123.074 217.607 122.345L185.89 67.4109C184.98 65.8368 182.709 65.8368 181.799 67.4109Z" fill="#023047"/>
<path d="M138.553 98.9469L170.718 58.7952C173.105 55.8144 170.983 51.3972 167.165 51.3972H102.835C99.0173 51.3972 96.8951 55.8144 99.2819 58.7952L131.447 98.9469C133.269 101.22 136.731 101.22 138.553 98.9469Z" fill="#82337E"/>
</svg>
